<svg xmlns="http://www.w3.org/2000/svg" viewBox="0 0 24 24"><defs><style>.a{fill:#ff7e41;}.b{fill:#fff;stroke:#fff;}</style></defs><g transform="translate(-69.611 -16)"><g transform="translate(70 16)"><rect class="a" width="24" height="24" rx="4" transform="translate(-0.389)"/><path class="b" d="M1.931-20.7H5.147a5.492,5.492,0,0,1,3.192.738,2.572,2.572,0,0,1,1.019,2.23,2.414,2.414,0,0,1-.622,1.7,3.029,3.029,0,0,1-1.817.87v.048a3.539,3.539,0,0,1,2.065.886,2.589,2.589,0,0,1,.662,1.889A3.031,3.031,0,0,1,8.572-9.851a4.714,4.714,0,0,1-3.048.874H1.931Zm.818,5.221H5.332a4.12,4.12,0,0,0,2.4-.549,1.99,1.99,0,0,0,.75-1.72,1.855,1.855,0,0,0-.846-1.7,4.823,4.823,0,0,0-2.522-.529H2.749Zm0,.722V-9.7H5.508q3.256,0,3.256-2.647,0-2.414-3.433-2.414ZM15.33-9.522a5.955,5.955,0,0,0,1.315-.128v.642a4.208,4.208,0,0,1-1.331.192,2.168,2.168,0,0,1-1.7-.618,2.867,2.867,0,0,1-.549-1.941V-17H11.769v-.465l1.291-.361.4-1.973h.409v2.109h2.558V-17H13.871v5.518A2.518,2.518,0,0,0,14.223-10,1.281,1.281,0,0,0,15.33-9.522Z" transform="translate(3.179 27.202)"/></g></g></svg>