<svg xmlns="http://www.w3.org/2000/svg" viewBox="0 0 24 24"><defs><style>.a,.b{fill:#fff;}.a{opacity:0;}.b{stroke:#fff;stroke-miterlimit:10;stroke-width:0.3px;}</style></defs><g transform="translate(-860 -122)"><rect class="a" width="24" height="24" rx="4" transform="translate(860 122)"/><g transform="translate(861.85 123.849)"><g transform="translate(0.15 1.25)"><path class="b" d="M19.08,20.15H.544a.4.4,0,0,1-.394-.4V1.653a.4.4,0,0,1,.394-.4H19.08a.4.4,0,0,1,.394.4V19.747a.4.4,0,0,1-.394.4ZM.937,19.343H18.686V2.057H.937V19.343Z" transform="translate(-0.15 -1.25)"/></g><g transform="translate(14.562 0.15)"><path class="b" d="M12.48,3a.333.333,0,0,1-.33-.33V.48a.33.33,0,1,1,.66,0V2.67a.327.327,0,0,1-.33.33Z" transform="translate(-12.15 -0.15)"/></g><g transform="translate(4.486 0.15)"><path class="b" d="M4.09,3a.327.327,0,0,1-.33-.33V.48a.33.33,0,0,1,.66,0V2.67A.327.327,0,0,1,4.09,3Z" transform="translate(-3.76 -0.15)"/></g><g transform="translate(0.24 7.035)"><path class="b" d="M19.04,6.47H.634A.37.37,0,0,1,.24,6.14a.37.37,0,0,1,.394-.33H19.04a.37.37,0,0,1,.394.33.363.363,0,0,1-.394.33Z" transform="translate(-0.24 -5.81)"/></g><g transform="translate(3.947 11.277)"><path class="b" d="M4.57,8.73H3.29v1.28H4.57Z" transform="translate(-3.29 -8.73)"/><g transform="translate(0 3.69)"><path class="b" d="M4.57,12.42H3.29V13.7H4.57Z" transform="translate(-3.29 -12.42)"/></g></g><g transform="translate(7.37 11.277)"><path class="b" d="M7.4,8.73H6.12v1.28H7.4Z" transform="translate(-6.12 -8.73)"/><g transform="translate(0 3.69)"><path class="b" d="M7.4,12.42H6.12V13.7H7.4Z" transform="translate(-6.12 -12.42)"/></g></g><g transform="translate(10.792 11.277)"><path class="b" d="M10.23,8.73H8.95v1.28h1.28Z" transform="translate(-8.95 -8.73)"/><g transform="translate(0 3.69)"><path class="b" d="M10.23,12.42H8.95V13.7h1.28Z" transform="translate(-8.95 -12.42)"/></g></g><g transform="translate(14.215 11.277)"><path class="b" d="M13.06,8.73H11.78v1.28h1.28Z" transform="translate(-11.78 -8.73)"/><g transform="translate(0 3.69)"><path class="b" d="M13.06,12.42H11.78V13.7h1.28Z" transform="translate(-11.78 -12.42)"/></g></g></g></g></svg>