<svg xmlns="http://www.w3.org/2000/svg" viewBox="0 0 24 24"><defs><style>.a{fill:#fff;opacity:0.4;}.b{opacity:0.8;}.c{fill:#9f9f9f;}</style></defs><g transform="translate(-699 -18)"><rect class="a" width="24" height="24" transform="translate(699 18)"/><g class="b" transform="translate(703.001 21)"><path class="c" d="M7.655,0h6.419A1.182,1.182,0,0,1,15.3,1.016a.857.857,0,0,1-.051.476,7.009,7.009,0,0,1-.476.99c-1.582,2.534-3.19,5.068-4.772,7.6a.814.814,0,0,0-.09.334V14.3a2.056,2.056,0,0,1-.746,1.608c-.707.6-1.428,1.209-2.135,1.8a1.008,1.008,0,0,1-.862.27.933.933,0,0,1-.759-1V10.42a.711.711,0,0,0-.09-.322Q2.9,6.277.5,2.444a5.106,5.106,0,0,1-.424-.836A1.168,1.168,0,0,1,1.223,0H7.655ZM6.818,16.028c.064-.051.116-.077.154-.116l1.248-1.055A.762.762,0,0,0,8.5,14.24V10.265a1.467,1.467,0,0,1,.244-.823c1.659-2.611,3.293-5.223,4.94-7.834a1.311,1.311,0,0,0,.1-.193H1.531c.064.1.1.193.154.27C2.548,3.062,3.41,4.438,4.284,5.8Q5.4,7.635,6.561,9.429a1.515,1.515,0,0,1,.257.875c-.013,1.852,0,3.7,0,5.557A.366.366,0,0,0,6.818,16.028Z" transform="translate(0)"/></g></g></svg>