<svg xmlns="http://www.w3.org/2000/svg" viewBox="0 0 24 24"><defs><style>.a,.b{fill:#fff;}.a{opacity:0;}</style></defs><g transform="translate(18255 15746)"><rect class="a" width="24" height="24" transform="translate(-18255 -15746)"/><path class="b" d="M-.5-7.349a9.726,9.726,0,0,0,9.725-9.726A9.735,9.735,0,0,0-.5-26.8a9.742,9.742,0,0,0-9.74,9.741,9.735,9.735,0,0,0,1.2,4.685L-10.776-6.8l5.583-1.749A9.854,9.854,0,0,0-.5-7.349ZM-.5-8.5A8.455,8.455,0,0,1-5.06-9.81l-3.95,1.231,1.232-3.944a8.357,8.357,0,0,1-1.307-4.537A8.583,8.583,0,0,1-.5-25.644a8.577,8.577,0,0,1,8.567,8.569A8.567,8.567,0,0,1-.5-8.5Zm-2.791-8.569a.994.994,0,0,1-.995.993.994.994,0,0,1-.995-.993.994.994,0,0,1,.995-.993A.994.994,0,0,1-3.293-17.074Zm3.786,0a.994.994,0,0,1-.995.993.994.994,0,0,1-.995-.993A.994.994,0,0,1-.5-18.068.994.994,0,0,1,.493-17.074Zm3.786,0a.994.994,0,0,1-.995.993.994.994,0,0,1-.995-.993.994.994,0,0,1,.995-.993A.994.994,0,0,1,4.28-17.074Z" transform="translate(-18242.225 -15717.2)"/></g></svg>