<svg xmlns="http://www.w3.org/2000/svg" viewBox="0 0 24 24"><defs><style>.a,.b{fill:#fff;}.a{opacity:0;}</style></defs><g transform="translate(-828 -122)"><rect class="a" width="24" height="24" transform="translate(828 122)"/><path class="b" d="M-7.494-39.262a5.15,5.15,0,0,1-1.989-.4A5.269,5.269,0,0,1-11.1-40.758,5.459,5.459,0,0,1-12.2-42.377a5.208,5.208,0,0,1-.4-1.989,5.15,5.15,0,0,1,.4-1.989A5.269,5.269,0,0,1-11.1-47.974a5.269,5.269,0,0,1,1.619-1.095,5.15,5.15,0,0,1,1.989-.4,5.15,5.15,0,0,1,1.989.4,5.459,5.459,0,0,1,1.619,1.095,5.269,5.269,0,0,1,1.095,1.619,5.15,5.15,0,0,1,.4,1.989,5.208,5.208,0,0,1-.4,1.989,5.459,5.459,0,0,1-1.095,1.619A5.459,5.459,0,0,1-5.5-39.663,5.15,5.15,0,0,1-7.494-39.262Zm0-9.005a3.859,3.859,0,0,0-2.76,1.141,3.859,3.859,0,0,0-1.141,2.76,3.885,3.885,0,0,0,1.141,2.76,3.923,3.923,0,0,0,2.76,1.141,3.951,3.951,0,0,0,2.76-1.141,3.951,3.951,0,0,0,1.141-2.76,3.923,3.923,0,0,0-1.141-2.76A3.885,3.885,0,0,0-7.494-48.267ZM.432-29.47h-1.2v-2.606A4.209,4.209,0,0,0-2.035-35.1a4.258,4.258,0,0,0-3.022-1.249H-9.93A4.294,4.294,0,0,0-12.968-35.1a4.258,4.258,0,0,0-1.249,3.022v2.606h-1.2v-2.606a5.305,5.305,0,0,1,.432-2.128,5.42,5.42,0,0,1,1.172-1.742,5.507,5.507,0,0,1,1.742-1.172A5.379,5.379,0,0,1-9.93-37.55h4.873a5.379,5.379,0,0,1,2.143.432,5.507,5.507,0,0,1,1.742,1.172A5.42,5.42,0,0,1,0-34.2a5.581,5.581,0,0,1,.432,2.128Z" transform="translate(847.42 173.47)"/></g></svg>