<svg xmlns="http://www.w3.org/2000/svg" viewBox="0 0 12 12"><defs><style>.a{fill:#fff;opacity:0.4;}.b{opacity:0.8;}</style></defs><g transform="translate(18658 15239)"><rect class="a" width="12" height="12" transform="translate(-18658 -15239)"/><g class="b" transform="translate(-18687.314 -15239.26)"><path d="M38.92,6.79a2.021,2.021,0,0,0-1.6,2.13,2.168,2.168,0,0,0,.39,1.03c-.02.01-.03.02-.04.02-.03.02-.05.04-.08.06a4.034,4.034,0,0,1-3.78.47.486.486,0,0,0-.67.3.5.5,0,0,0,.34.63,5.179,5.179,0,0,0,2.7.25,4.922,4.922,0,0,0,2.28-1.02.164.164,0,0,1,.12-.02c.17.03.33.09.5.11a2.005,2.005,0,1,0-.16-3.96Zm.4,2.96a1,1,0,1,1,.99-.99A.994.994,0,0,1,39.32,9.75Z"/><path d="M32.15,6.93a2.291,2.291,0,0,0-.83-.19V6.67a4.01,4.01,0,0,1,.97-2.54c.12-.14.26-.26.38-.39.24-.28.24-.71-.2-.83a.517.517,0,0,0-.5.13,4.855,4.855,0,0,0-1.65,3.79.249.249,0,0,1-.13.25,2,2,0,0,0,1.46,3.63A2.029,2.029,0,0,0,33.3,9.02,2.008,2.008,0,0,0,32.15,6.93Zm-.84,2.82a1,1,0,1,1,1.01-.99A1.01,1.01,0,0,1,31.31,9.75Z"/><path d="M35.61,4.23a1.927,1.927,0,0,0,1.46-1.07c.02.01.04.01.05.02.06.03.11.06.17.09a3.979,3.979,0,0,1,1.87,2.4.563.563,0,0,0,.29.38.453.453,0,0,0,.51-.03.427.427,0,0,0,.17-.48,4.918,4.918,0,0,0-2.77-3.29.154.154,0,0,1-.1-.15A1.91,1.91,0,0,0,35.38.26,2,2,0,0,0,33.34,2.6,2.021,2.021,0,0,0,35.61,4.23Zm-.29-2.98a1,1,0,0,1,1,1,1,1,0,1,1-2,0A1,1,0,0,1,35.32,1.25Z"/></g></g></svg>