<svg xmlns="http://www.w3.org/2000/svg" viewBox="0 0 24 24"><defs><style>.a,.b{fill:#fff;}.a{opacity:0;}</style></defs><g transform="translate(18214 15741)"><rect class="a" width="24" height="24" transform="translate(-18214 -15741)"/><path class="b" d="M-.216-6.432A2.7,2.7,0,0,1-2.935-9.1l.016-.246h-6.3L-6.482-13V-18.22A6.324,6.324,0,0,1-6-20.63a6.317,6.317,0,0,1,1.344-1.965,6.727,6.727,0,0,1,2-1.32l.313-.123a1.732,1.732,0,0,1-.016-.292,2.084,2.084,0,0,1,.625-1.489,2.133,2.133,0,0,1,1.516-.614,2.17,2.17,0,0,1,1.531.614,2.15,2.15,0,0,1,.625,1.489c0,.107-.016.2-.016.292l.312.123a6.653,6.653,0,0,1,1.984,1.32A6.063,6.063,0,0,1,5.565-20.63a6.043,6.043,0,0,1,.484,2.41V-13L8.784-9.348H2.5l.016.246A2.7,2.7,0,0,1-.216-6.432Zm0-17.959a6.412,6.412,0,0,1,.938.061.929.929,0,0,0-.938-.906.906.906,0,0,0-.922.906A6.064,6.064,0,0,1-.216-24.391ZM-6.81-10.546H6.378L4.831-12.6V-18.22a4.936,4.936,0,0,0-1.469-3.53A5.054,5.054,0,0,0-.216-23.193,5.054,5.054,0,0,0-3.794-21.75a5,5,0,0,0-1.469,3.53V-12.6Zm5.109,1.2c0,.077-.016.153-.016.246a1.487,1.487,0,0,0,1.5,1.474A1.515,1.515,0,0,0,.862-8.074,1.44,1.44,0,0,0,1.3-9.1a1.219,1.219,0,0,0-.016-.246Z" transform="translate(-18201.783 -15712.568)"/></g></svg>