<svg xmlns="http://www.w3.org/2000/svg" viewBox="0 0 3.334 16"><defs><style>.a{fill:#9f9f9f;}</style></defs><g transform="translate(-900.538 -241.96)"><path class="a" d="M-9.672-30.793a1.663,1.663,0,0,1-1.644,1.667,1.663,1.663,0,0,1-1.644-1.667,1.663,1.663,0,0,1,1.644-1.667A1.663,1.663,0,0,1-9.672-30.793Zm6.356,0A1.663,1.663,0,0,1-4.96-29.127,1.663,1.663,0,0,1-6.6-30.793,1.663,1.663,0,0,1-4.96-32.46,1.663,1.663,0,0,1-3.316-30.793Zm6.356,0A1.663,1.663,0,0,1,1.4-29.127,1.663,1.663,0,0,1-.248-30.793,1.663,1.663,0,0,1,1.4-32.46,1.663,1.663,0,0,1,3.04-30.793Z" transform="translate(933 245) rotate(-90)"/></g></svg>