<svg xmlns="http://www.w3.org/2000/svg" viewBox="0 0 76 48"><defs><style>.a{fill:rgba(0,0,0,0.95);opacity:0.85;}.b{fill:#fff;}</style></defs><g transform="translate(-421 -447)"><rect class="a" width="76" height="48" rx="4" transform="translate(421 447)"/><g transform="translate(454.195 461.62)"><path class="b" d="M0,9.886V1.273A1.172,1.172,0,0,1,.566.132,1.15,1.15,0,0,1,1.83.264q6.792,4.3,13.594,8.6a1.1,1.1,0,0,1,.009,2.028Q8.613,15.211,1.8,19.518c-.594.377-1.151.368-1.509-.1a1.531,1.531,0,0,1-.283-.858C0,15.678,0,12.782,0,9.886Z" transform="translate(0 0)"/></g></g></svg>