<svg xmlns="http://www.w3.org/2000/svg" viewBox="0 0 12 12"><defs><style>.a{fill:#fff;opacity:0.4;}.b{opacity:0.8;}</style></defs><g transform="translate(18658 15301)"><rect class="a" width="12" height="12" transform="translate(-18658 -15301)"/><path class="b" d="M20.32,0h-.05a5.957,5.957,0,0,0-.19,11.91h.21a5.918,5.918,0,0,0,4.09-1.65,5.994,5.994,0,0,0,1.86-4.3A6.006,6.006,0,0,0,20.32,0Zm5.1,5.55h-1.4l-.04-.29c-.04-.35-.09-.71-.15-1.07a6.7,6.7,0,0,0-.4-1.38,2.8,2.8,0,0,0,.55-.44A4.989,4.989,0,0,1,25.42,5.55ZM20.7,2.82V.87a.749.749,0,0,1,.16.05A2.613,2.613,0,0,1,22.1,1.93c.11.16.21.33.31.49l.02.03A5.868,5.868,0,0,1,20.7,2.82Zm0,.8a6.27,6.27,0,0,0,2.04-.47,7.867,7.867,0,0,1,.46,2.39H20.7Zm2.42-1.51a5.533,5.533,0,0,0-.45-.72q.24.135.48.3c.09.05.17.11.26.17C23.31,1.94,23.21,2.03,23.12,2.11Zm.31,7.03a8.546,8.546,0,0,0,.58-2.78h1.41a5.093,5.093,0,0,1-1.44,3.21Zm-2.74-.79V6.36H23.2a7.9,7.9,0,0,1-.48,2.44A6.682,6.682,0,0,0,20.69,8.35Zm2.71,1.73a4.871,4.871,0,0,1-.75.46,6.008,6.008,0,0,0,.45-.7A1.376,1.376,0,0,1,23.4,10.08Zm-2.71.99V9.15a6.049,6.049,0,0,1,1.73.36A3.225,3.225,0,0,1,20.69,11.07Zm-2.6-8.64A3.119,3.119,0,0,1,19.88.83V2.81A5.847,5.847,0,0,1,18.09,2.43Zm1.79,1.19V5.55H17.3a8.882,8.882,0,0,1,.48-2.41A6.638,6.638,0,0,0,19.88,3.62ZM17.81,1.45a6.12,6.12,0,0,0-.37.57l-.04.06a.937.937,0,0,1-.26-.23,4.311,4.311,0,0,1,.7-.44C17.83,1.42,17.82,1.44,17.81,1.45ZM15.14,5.54a5.117,5.117,0,0,1,1.42-3.18,2.544,2.544,0,0,0,.51.41,6.212,6.212,0,0,0-.4,1.38c-.06.36-.11.73-.15,1.09l-.04.3H15.14Zm1.37.82a8.42,8.42,0,0,0,.59,2.81l-.52.41a5.474,5.474,0,0,1-1.44-3.23h1.37Zm.8,0h2.57V8.35a6.116,6.116,0,0,0-2.08.48A7.692,7.692,0,0,1,17.31,6.36Zm.11,3.51c.13.23.26.44.4.64a3.926,3.926,0,0,1-.66-.43A1.088,1.088,0,0,1,17.42,9.87Zm2.46-.72v1.93a1.822,1.822,0,0,1-.5-.19,3.222,3.222,0,0,1-1.2-1.25c-.02-.04-.04-.07-.06-.11A5.518,5.518,0,0,1,19.88,9.15Z" transform="translate(-18672.33 -15301)"/></g></svg>