<svg width="32" height="32" xmlns="http://www.w3.org/2000/svg">
 <title/>
 <desc/>

 <g>
  <title>background</title>
  <rect fill="none" id="canvas_background" height="402" width="582" y="-1" x="-1"/>
 </g>
 <g>
  <title>Layer 1</title>
  <path fill="#ffffff" stroke="null" transform="rotate(90.157470703125 15.156710624694824,15.615340232849121) " id="search" d="m18.238711,20.201779c-1.394481,0.993475 -3.100723,1.577826 -4.943466,1.577826c-4.709994,0 -8.528199,-3.817548 -8.528199,-8.526731c0,-4.709183 3.818205,-8.526731 8.528199,-8.526731c4.709994,0 8.528199,3.817548 8.528199,8.526731c0,2.354592 -0.954546,4.486274 -2.497849,6.029312l6.017256,6.016221c0.275973,0.275925 0.26926,0.718342 -0.007796,0.99535c-0.278992,0.278944 -0.72277,0.280499 -0.995522,0.007794l-6.100822,-6.099773l0,0zm-4.943466,0.574682c4.155881,0 7.524881,-3.36842 7.524881,-7.523586c0,-4.155166 -3.369,-7.523586 -7.524881,-7.523586c-4.155881,0 -7.524881,3.36842 -7.524881,7.523586c0,4.155166 3.369,7.523586 7.524881,7.523586l0,0z"/>
 </g>
</svg>