<svg xmlns="http://www.w3.org/2000/svg" viewBox="0 0 20 20"><g transform="translate(-1.888 -0.896)"><path d="M-.67-38.217v-4.906H-2.905a11.346,11.346,0,0,0-.522-1.321L-1.875-46l-3.469-3.469-1.524,1.524a7.819,7.819,0,0,0-1.35-.566V-50.67h-4.906v2.163a7.506,7.506,0,0,0-1.364.566l-1.524-1.524L-19.48-46l1.553,1.553a11.346,11.346,0,0,0-.522,1.321H-20.67v4.906h2.293A8.918,8.918,0,0,0-17.84-37l-1.64,1.655,3.469,3.469,1.684-1.684a8.674,8.674,0,0,0,1.2.479v2.409h4.906v-2.409a7.837,7.837,0,0,0,1.19-.479l1.684,1.684,3.469-3.469L-3.515-37a8.918,8.918,0,0,0,.537-1.219ZM-1.8-39.349H-3.849a7.018,7.018,0,0,1-1.1,2.54l1.48,1.466-1.872,1.872-1.495-1.495A7.257,7.257,0,0,1-9.349-33.95V-31.8h-2.642V-33.95a7.058,7.058,0,0,1-2.525-1.016l-1.495,1.495-1.872-1.872,1.48-1.466a7.018,7.018,0,0,1-1.1-2.54h-2.032v-2.642h1.974a7.683,7.683,0,0,1,1.045-2.642L-17.883-46l1.872-1.872,1.335,1.35a7.188,7.188,0,0,1,2.685-1.118v-1.9h2.642v1.9a7.366,7.366,0,0,1,2.671,1.118l1.335-1.35L-3.471-46l-1.364,1.364A7.683,7.683,0,0,1-3.79-41.991H-1.8Zm-8.868,1.887A3.209,3.209,0,0,0-7.462-40.67a3.209,3.209,0,0,0-3.208-3.208,3.19,3.19,0,0,0-3.208,3.208A3.19,3.19,0,0,0-10.67-37.462Zm0-1.132a2.075,2.075,0,0,1-2.075-2.075,2.075,2.075,0,0,1,2.075-2.075A2.075,2.075,0,0,1-8.595-40.67,2.075,2.075,0,0,1-10.67-38.595Z" transform="translate(22.558 51.566)"/></g></svg>